<svg xmlns="http://www.w3.org/2000/svg" version="1.1" xmlns:xlink="http://www.w3.org/1999/xlink" width="512" height="512" x="0" y="0" viewBox="0 0 512 512" style="enable-background:new 0 0 512 512" xml:space="preserve" class=""><g><path fill="#9be69d" fill-rule="evenodd" d="m443.963 324.141 7.034-7.016c3.341-3.333 8.822-3.333 12.193 0l.234.263V133.582a3.092 3.092 0 0 0-1.416-2.599L259.894.495a3.092 3.092 0 0 0-3.3-.035L44.621 130.99a3.093 3.093 0 0 0-1.472 2.635v323.707h51.615z" clip-rule="evenodd" opacity="1" data-original="#9be69d" class=""></path><path fill="#004281" fill-rule="evenodd" d="m411.81 191.973-153.833-14.635-163.213 14.635v265.359h55.308L411.81 295.608z" clip-rule="evenodd" opacity="1" data-original="#004281" class=""></path><path fill="#ffc344" fill-rule="evenodd" d="M309.782 364.572c2.579-1.14 5.129-2.28 5.129-5.087V256.318c0-2.806-2.315-5.116-5.129-5.116h-38.103c-5.841 4.801-15.674 7.135-26.848 0h-38.132c-2.814 0-5.1 2.31-5.1 5.116v103.168c0 2.777 2.257 5.058 5.071 5.087l51.586 22.832z" clip-rule="evenodd" opacity="1" data-original="#ffc344"></path><path fill="#feb237" fill-rule="evenodd" d="M309.782 251.202h-19.374c2.814 0 5.1 2.31 5.1 5.116v92.848c0 2.806-2.11 13.594-4.924 13.594l19.403 12.353c2.579-1.111 4.924-2.514 4.924-5.321V256.318c0-2.807-2.315-5.116-5.129-5.116z" clip-rule="evenodd" opacity="1" data-original="#feb237" class=""></path><path fill="#f2fbff" fill-rule="evenodd" d="M271.679 251.202h-26.848v33.25a3 3 0 0 0 3 3h20.848a3 3 0 0 0 3-3z" clip-rule="evenodd" opacity="1" data-original="#f2fbff" class=""></path><path fill="#6fd7a3" fill-rule="evenodd" d="m231.144 16.129 204.281 131.868a3.094 3.094 0 0 1 1.416 2.599v169.715c2.433 1.199 4.807 2.456 7.122 3.83l7.034-7.016c3.341-3.333 8.822-3.333 12.193 0l.234.263V133.582a3.092 3.092 0 0 0-1.416-2.599L259.894.495a3.092 3.092 0 0 0-3.3-.035z" clip-rule="evenodd" opacity="1" data-original="#6fd7a3" class=""></path><path fill="#00366d" fill-rule="evenodd" d="M94.764 215.331h296.617v90.568h19.667c.264 0 .498 0 .762.029V191.973l-153.833-14.635-163.213 14.635z" clip-rule="evenodd" opacity="1" data-original="#00366d" class=""></path><path fill="#d77f4a" fill-rule="evenodd" d="M258.255 452.216v-97.964h-43.232c-6.143 6.501-15.393 9.001-26.848 0h-38.103a5.128 5.128 0 0 0-5.129 5.116v92.848a5.128 5.128 0 0 0 5.129 5.116h103.054c2.814 0 5.129-2.31 5.129-5.116z" clip-rule="evenodd" opacity="1" data-original="#d77f4a"></path><path fill="#d77f4a" fill-rule="evenodd" d="M247.587 354.252v97.525c0 3.04 2.491 5.555 5.54 5.555h111.817c3.048 0 5.54-2.514 5.54-5.555v-91.971c0-3.04-2.491-5.554-5.54-5.554h-61.463z" clip-rule="evenodd" opacity="1" data-original="#d77f4a"></path><path fill="#00366d" d="M271.943 116.215h-27.932a7.735 7.735 0 1 1 0-15.47h27.932a7.735 7.735 0 1 1 0 15.47zM271.943 85.285h-27.932a7.735 7.735 0 1 1 0-15.47h27.932a7.735 7.735 0 1 1 0 15.47z" opacity="1" data-original="#00366d" class=""></path><path fill="#f2fbff" fill-rule="evenodd" d="M206.67 354.252h-18.495v33.25a3 3 0 0 0 3 3h20.848a3 3 0 0 0 3-3v-33.25h-8.324z" clip-rule="evenodd" opacity="1" data-original="#f2fbff" class=""></path><path fill="#c86d36" fill-rule="evenodd" d="M258.255 452.216v-97.964h-19.403v97.964c0 2.806-2.286 5.116-5.1 5.116h19.374c2.814 0 5.129-2.31 5.129-5.116z" clip-rule="evenodd" opacity="1" data-original="#c86d36"></path><path fill="#f2fbff" fill-rule="evenodd" d="M413.334 156.804H93.24c-4.015 0-7.327 3.274-7.327 7.309v20.552c0 4.034 3.312 7.309 7.327 7.309h320.094c4.015 0 7.328-3.274 7.328-7.309v-20.552c0-4.035-3.312-7.309-7.328-7.309z" clip-rule="evenodd" opacity="1" data-original="#f2fbff" class=""></path><path fill="#dff6fd" fill-rule="evenodd" d="M377.342 156.804c4.045 0 7.327 3.274 7.327 7.309v20.552c0 4.034-3.283 7.309-7.327 7.309h35.993c4.015 0 7.328-3.274 7.328-7.309v-20.552c0-4.034-3.312-7.309-7.328-7.309z" clip-rule="evenodd" opacity="1" data-original="#dff6fd"></path><path fill="#4f66d0" d="M340.018 465.067H14.602a7.735 7.735 0 1 1 0-15.47h325.417a7.735 7.735 0 1 1-.001 15.47z" opacity="1" data-original="#4f66d0"></path><path fill="#3c87d0" fill-rule="evenodd" d="M396.657 442.159c-21.25 0-38.484-17.19-38.484-38.384 0-21.166 17.234-38.355 38.484-38.355s38.455 17.19 38.455 38.355c0 21.195-17.205 38.384-38.455 38.384zm47.306-118.018a91.637 91.637 0 0 0-24.298-10.057v-9.91c0-4.707-3.898-8.595-8.617-8.595h-28.782c-4.748 0-8.617 3.859-8.617 8.595v9.91a92.24 92.24 0 0 0-24.327 10.057l-7.034-7.016c-3.341-3.333-8.822-3.333-12.164 0l-20.37 20.289c-3.341 3.362-3.341 8.829 0 12.161l7.034 7.016a90.97 90.97 0 0 0-10.083 24.264h-9.936c-4.719 0-8.617 3.859-8.617 8.566v28.708c0 4.736 3.898 8.595 8.617 8.595h9.936a90.924 90.924 0 0 0 10.083 24.264l-7.034 7.016c-3.341 3.333-3.341 8.8 0 12.132l20.37 20.318c3.341 3.333 8.822 3.333 12.164 0l7.034-7.016a91.84 91.84 0 0 0 24.327 10.057v9.91c0 4.707 3.869 8.595 8.617 8.595h28.782c4.719 0 8.617-3.888 8.617-8.595v-9.91a91.65 91.65 0 0 0 24.298-10.057l7.034 7.016c3.341 3.333 8.822 3.333 12.193 0l20.341-20.318c3.341-3.333 3.341-8.8 0-12.132l-7.034-7.016c4.455-7.484 7.884-15.611 10.083-24.264h9.936c4.748 0 8.617-3.859 8.617-8.595v-28.708c0-4.707-3.869-8.566-8.617-8.566h-9.936a90.924 90.924 0 0 0-10.083-24.264l7.034-7.016c3.341-3.333 3.341-8.8 0-12.161l-20.341-20.289c-3.371-3.333-8.852-3.333-12.193 0z" clip-rule="evenodd" opacity="1" data-original="#3c87d0"></path><path fill="#f2fbff" fill-rule="evenodd" d="M358.173 403.775c0 21.195 17.234 38.384 38.484 38.384s38.455-17.19 38.455-38.384c0-21.166-17.205-38.355-38.455-38.355s-38.484 17.189-38.484 38.355z" clip-rule="evenodd" opacity="1" data-original="#f2fbff" class=""></path><path fill="#dff6fd" fill-rule="evenodd" d="M413.364 401.845c0 18.593-13.277 34.116-30.893 37.624a38.738 38.738 0 0 0 14.186 2.69c21.25 0 38.455-17.19 38.455-38.384 0-21.166-17.205-38.355-38.455-38.355-2.609 0-5.129.263-7.591.76 14.215 5.613 24.298 19.47 24.298 35.665z" clip-rule="evenodd" opacity="1" data-original="#dff6fd"></path><path fill="#4f66d0" fill-rule="evenodd" d="M426.201 316.014c20.253 23.154 32.563 53.966 32.563 87.761 0 33.824-12.31 64.637-32.534 87.79a93.666 93.666 0 0 0 17.733-8.127l7.034 7.016c3.341 3.333 8.822 3.333 12.193 0l20.341-20.318c3.341-3.333 3.341-8.8 0-12.132l-7.034-7.016c4.455-7.484 7.884-15.611 10.083-24.264h9.936c4.748 0 8.617-3.859 8.617-8.595v-28.708c0-4.707-3.869-8.566-8.617-8.566h-9.936a90.924 90.924 0 0 0-10.083-24.264l7.034-7.016c3.341-3.333 3.341-8.8 0-12.161l-20.341-20.289c-3.371-3.333-8.852-3.333-12.193 0l-7.034 7.016a91.233 91.233 0 0 0-17.762-8.127z" clip-rule="evenodd" opacity="1" data-original="#4f66d0"></path></g></svg>